<svg xmlns="http://www.w3.org/2000/svg" version="1.1" xmlns:xlink="http://www.w3.org/1999/xlink" width="512" height="512" x="0" y="0" viewBox="0 0 24 24" style="enable-background:new 0 0 512 512" xml:space="preserve" class=""><g><path d="M21.75 11v6A3.383 3.383 0 0 1 18 20.75H6A3.383 3.383 0 0 1 2.25 17V7A3.383 3.383 0 0 1 6 3.25h8a.75.75 0 0 1 0 1.5H6c-1.577 0-2.25.673-2.25 2.25v9.25l2.54-2.54a1.008 1.008 0 0 1 1.42 0l.94.94a.5.5 0 0 0 .7 0l4.94-4.94a1.008 1.008 0 0 1 1.42 0l4.54 4.54V11a.75.75 0 0 1 1.5 0zM7.993 7.75a1.253 1.253 0 1 0 .007 0zM18.53 5.03l.22-.219V7a.75.75 0 0 0 1.5 0V4.811l.22.219a.75.75 0 0 0 1.06-1.06l-1.5-1.5a.751.751 0 0 0-1.06 0l-1.5 1.5a.75.75 0 0 0 1.06 1.06z" fill="#000000" opacity="1" data-original="#000000" class=""></path></g></svg>